<?xml version="1.0" encoding="utf-8"?>
<!-- Generator: Adobe Illustrator 18.0.0, SVG Export Plug-In . SVG Version: 6.00 Build 0)  -->
<!DOCTYPE svg PUBLIC "-//W3C//DTD SVG 1.1//EN" "http://www.w3.org/Graphics/SVG/1.1/DTD/svg11.dtd">
<svg version="1.1" id="Layer_1" xmlns="http://www.w3.org/2000/svg" xmlns:xlink="http://www.w3.org/1999/xlink" x="0px" y="0px"
	 viewBox="0 0 612 792" enable-background="new 0 0 612 792" xml:space="preserve">
<g>
	<path fill="#231F20" d="M278.4,224.2l3.8-22.1h31l-3.8,22.1H278.4z M45.3,312.1l-13.2-78h31l5.1,49.3l22.1-49.3h29.6l-40.2,78H45.3
		L45.3,312.1z M474,312.1l13.8-78h28.4l-2.1,12.3c8.7-9.4,17-14.4,28.9-14.4c20.4,0,28.2,12.1,24.3,33.5l-8.2,46.7h-31l7.2-41.2
		c1.5-7.7,0.5-14.7-8.5-14.7c-9.6,0-13.2,6.2-14.9,16.1l-7,39.7L474,312.1L474,312.1z M198.9,312.1l13.8-78h28.2l-2.6,15.7h0.2
		c6.5-12.3,15.1-18.1,27.2-18.1c1.5,0,2.6,0.2,3.8,0.5l-5.5,31c-2.1-0.2-4.1-1-6.2-1c-12.5,0-20.2,5.8-23.1,22.7l-4.9,27H199v0.2
		H198.9z M435.1,252.6c-10.6,0-15.7,10.8-17,19.8c-2.6,14.7,1.7,21.2,9.6,21.2c8.5,0,14.4-6.5,17-21.2
		C446.6,260.7,443,252.4,435.1,252.6z M385.2,274.1c4.9-27.2,25.3-42.1,51.6-42.1c27.4,0,41.7,16.4,37.4,40.4
		c-5.1,28.7-26.8,42.1-51.8,42.1C397.3,314.5,380.5,300.5,385.2,274.1z M141.9,264.4h28.2c1.2-7.2-3.8-13.4-11.3-13.4
		C149.6,250.7,143.2,256,141.9,264.4z M198.2,280h-59c-1.7,9.1,4.3,15.5,12.5,15.5c4.9,0,9.6-2.1,12.8-6.8H194
		c-8.7,19.3-29.6,25.7-47.6,25.7c-25.1,0.2-41.9-14.2-37.4-40.4c4.6-25.5,26.5-42.1,51.6-42.1C189.7,231.8,203.5,251.9,198.2,280z
		 M294,312.1h-31l13.8-78h31L294,312.1z"/>
	<polygon fill="#231F20" points="85.4,191 610.2,0 611.9,4.9 76.1,211.4 0,1.5 4.1,0 	"/>
	<polygon fill="#231F20" points="297.9,341.9 301.3,321.9 350.8,256.7 312.1,256.7 316.2,234.1 390.1,234.1 386.5,254.1 
		336.9,319.3 353.1,319.3 555.1,333.3 553.7,341.9 375,341.9 	"/>
</g>
</svg>
