<?xml version="1.0" encoding="utf-8"?>
<!-- Generator: Adobe Illustrator 18.0.0, SVG Export Plug-In . SVG Version: 6.00 Build 0)  -->
<!DOCTYPE svg PUBLIC "-//W3C//DTD SVG 1.1//EN" "http://www.w3.org/Graphics/SVG/1.1/DTD/svg11.dtd">
<svg version="1.1" id="Layer_1" xmlns="http://www.w3.org/2000/svg" xmlns:xlink="http://www.w3.org/1999/xlink" x="0px" y="0px"
	 viewBox="0 0 393.5 323.4" enable-background="new 0 0 393.5 323.4" xml:space="preserve">
<g>
	<path fill="#010101" d="M49.7,240c-2,0-3.8-0.4-5.3-1.1c-1.5-0.7-2.8-2-4.1-3.6h-0.1v3.9h-4.6v-40.9h4.6v15.6h0.1
		c1.1-1.5,2.4-2.7,4-3.6c1.5-0.9,3.4-1.3,5.6-1.3c1.9,0,3.6,0.4,5.1,1.1c1.5,0.7,2.9,1.7,4,3c1.1,1.3,2,2.9,2.6,4.9
		c0.6,1.9,0.9,4.1,0.9,6.6c0,2.4-0.3,4.5-0.9,6.4c-0.6,1.9-1.4,3.6-2.5,4.9c-1.1,1.4-2.5,2.4-4,3.1C53.5,239.6,51.7,240,49.7,240z
		 M49.4,236.1c1.4,0,2.6-0.3,3.7-0.9c1-0.6,1.9-1.4,2.6-2.4c0.7-1,1.2-2.3,1.5-3.7c0.3-1.4,0.5-3,0.5-4.6c0-1.6-0.2-3.2-0.5-4.6
		c-0.3-1.4-0.9-2.7-1.5-3.7c-0.7-1-1.5-1.9-2.6-2.5c-1-0.6-2.3-0.9-3.7-0.9c-1.6,0-3,0.3-4.2,0.9c-1.2,0.6-2.2,1.5-2.9,2.5
		c-0.8,1.1-1.3,2.3-1.7,3.7c-0.4,1.4-0.6,2.9-0.6,4.5c0,1.7,0.2,3.2,0.6,4.6c0.4,1.4,1,2.6,1.7,3.7c0.8,1,1.8,1.8,2.9,2.4
		C46.4,235.8,47.8,236.1,49.4,236.1z"/>
	<path fill="#010101" d="M70.9,248.9c-0.9,0-1.6,0-2.3-0.1c-0.6-0.1-1.3-0.2-1.9-0.5v-4.1H67c0.3,0.2,0.7,0.3,1.2,0.5
		c0.5,0.1,1.2,0.2,1.9,0.2c1,0,1.8-0.2,2.5-0.7c0.7-0.5,1.3-1.4,1.9-2.9l1.1-2.9l-11.6-28.7h5l7,18.4c0.2,0.7,0.5,1.3,0.7,2
		c0.2,0.7,0.4,1.3,0.6,1.9c0.2,0.7,0.5,1.3,0.7,1.9h0.1c0.2-0.6,0.4-1.3,0.6-1.9c0.2-0.6,0.4-1.2,0.6-1.9c0.2-0.7,0.5-1.3,0.7-2
		l6.8-18.4h4.9l-12.7,32c-0.6,1.5-1.2,2.8-1.8,3.7c-0.6,1-1.2,1.7-1.9,2.3s-1.4,0.9-2.1,1.1C72.7,248.8,71.8,248.9,70.9,248.9z"/>
	<path fill="#010101" d="M104,209.5h5l6.1,18.8c0.2,0.7,0.4,1.3,0.7,2.1c0.2,0.7,0.5,1.4,0.7,2c0.2,0.7,0.4,1.4,0.6,2.1h0.1
		c0.2-0.7,0.4-1.4,0.6-2.2c0.2-0.6,0.4-1.3,0.6-2c0.2-0.7,0.5-1.4,0.7-2l6.2-18.8h4.8l-10.6,29.6h-5.2L104,209.5z"/>
	<path fill="#010101" d="M146.1,239.9c-2.3,0-4.3-0.4-6-1.2s-3.3-1.9-4.5-3.3c-1.2-1.4-2.2-3.1-2.8-5c-0.6-1.9-1-3.9-1-6
		c0-2.1,0.3-4.1,1-6c0.7-1.9,1.6-3.5,2.9-4.9c1.2-1.4,2.7-2.5,4.4-3.4c1.7-0.8,3.6-1.2,5.7-1.2c2.2,0,4.2,0.4,5.9,1.2
		c1.7,0.8,3.1,2,4.3,3.4c1.1,1.5,2,3.2,2.6,5.3c0.6,2,0.9,4.3,0.9,6.7h-22.9c0.1,1.5,0.3,2.9,0.8,4.2c0.5,1.3,1.1,2.4,1.9,3.4
		c0.8,1,1.8,1.7,2.9,2.2c1.1,0.5,2.5,0.8,4,0.8c2.2,0,4-0.5,5.3-1.5c1.4-1,2.3-2.5,2.9-4.6h4.5c-0.7,3.2-2.1,5.7-4.4,7.4
		C152.2,239.1,149.4,239.9,146.1,239.9z M145.8,212.4c-1.4,0-2.6,0.2-3.7,0.7c-1.1,0.5-2,1.1-2.7,2c-0.7,0.9-1.4,1.9-1.8,3
		c-0.5,1.2-0.8,2.4-0.9,3.7h17.8c-0.2-3-1-5.3-2.4-7C150.5,213.3,148.5,212.4,145.8,212.4z"/>
	<path fill="#010101" d="M169.5,214.4h0.1c0.9-1.5,2.1-2.7,3.6-3.7c1.5-1,3.3-1.5,5.2-1.5c0.4,0,0.8,0,1,0.1
		c0.3,0.1,0.6,0.1,0.9,0.3v4.5h-0.2c-0.3-0.1-0.7-0.2-0.9-0.2c-0.3,0-0.7-0.1-1.1-0.1c-1.1,0-2.2,0.2-3.3,0.6c-1,0.4-1.9,1-2.7,1.8
		c-0.8,0.8-1.4,1.7-1.9,2.8c-0.5,1.1-0.7,2.4-0.7,3.8v16.4h-4.6v-29.6h4.6V214.4z"/>
	<path fill="#010101" d="M185,198.2h4.6v5.7H185V198.2z M185,209.5h4.6v29.6H185V209.5z"/>
	<path fill="#010101" d="M194.7,235.5l16.5-21.7v-0.2h-15.5v-4.1h22v2.7l-17,22.4v0.2h17.6v4.2h-23.6V235.5z"/>
	<path fill="#010101" d="M235.4,239.9c-2.2,0-4.2-0.4-6-1.2c-1.8-0.8-3.3-1.9-4.5-3.3c-1.2-1.4-2.2-3.1-2.9-5c-0.7-1.9-1-3.9-1-6
		c0-2.1,0.3-4.1,1-6c0.7-1.9,1.6-3.5,2.9-4.9c1.2-1.4,2.7-2.5,4.5-3.4c1.8-0.8,3.7-1.2,6-1.2c2.2,0,4.2,0.4,6,1.2
		c1.8,0.8,3.3,1.9,4.5,3.4c1.2,1.4,2.2,3.1,2.8,4.9c0.6,1.9,1,3.9,1,6c0,2.1-0.3,4.2-1,6c-0.7,1.9-1.6,3.5-2.8,5
		c-1.2,1.4-2.7,2.5-4.5,3.3C239.6,239.5,237.6,239.9,235.4,239.9z M235.4,236c1.6,0,2.9-0.3,4.1-0.9c1.2-0.6,2.2-1.4,3-2.5
		c0.8-1.1,1.4-2.3,1.8-3.7c0.4-1.4,0.6-2.9,0.6-4.6c0-1.6-0.2-3.2-0.6-4.6c-0.4-1.4-1-2.7-1.8-3.7c-0.8-1.1-1.8-1.9-3-2.5
		c-1.2-0.6-2.6-0.9-4.1-0.9c-1.6,0-2.9,0.3-4.2,0.9c-1.2,0.6-2.2,1.5-3,2.5c-0.8,1.1-1.4,2.3-1.8,3.7c-0.4,1.4-0.6,2.9-0.6,4.6
		c0,1.6,0.2,3.2,0.6,4.6c0.4,1.4,1,2.6,1.8,3.7c0.8,1.1,1.8,1.9,3,2.5C232.4,235.7,233.8,236,235.4,236z"/>
	<path fill="#010101" d="M260,213.4h0.1c1.1-1.4,2.4-2.5,3.9-3.3c1.5-0.8,3.3-1.2,5.5-1.2c3.1,0,5.5,0.8,7.3,2.4
		c1.8,1.6,2.7,4,2.7,7.1v20.8h-4.6v-20.4c0-1.9-0.6-3.4-1.8-4.5c-1.2-1-2.8-1.5-4.9-1.5c-1.2,0-2.3,0.2-3.3,0.6
		c-1,0.4-1.9,1-2.6,1.7c-0.7,0.7-1.3,1.6-1.7,2.6c-0.4,1-0.6,2.1-0.6,3.3v18.2h-4.6v-29.6h4.6V213.4z"/>
</g>
<polygon fill="#EC2427" points="365.1,34.9 331.6,106.9 318.9,79.6 305.2,79.6 326,124.3 337.1,124.3 378.7,34.9 "/>
<g>
	<g>
		<path fill="#010101" d="M36.4,97.7H24.8V79.6h11.6v-6.4c0-7.6,1.7-13.6,5.2-17.7c7-9.9,22.8-12.3,39.6-10.6v20
			c-10.6-0.3-16.7,0.5-16.7,10.4v4.3h16.7v18.1H64.6v70.9H36.4V97.7z M90.3,44.3h28.3v22.9H90.3V44.3z M90.3,79.6h28.3v89H90.3V79.6
			z"/>
		<path fill="#010101" d="M126.6,124.3c0-26.8,19.1-47.1,47.6-47.1c28.7,0,47.4,20.3,47.4,47.1s-18.8,47.1-47.4,47.1
			C145.7,171.4,126.6,151,126.6,124.3z M193,124.3c0-16.2-6.6-27.1-18.9-27.1c-12.3,0-18.8,10.9-18.8,27.1s6.4,26.9,18.8,26.9
			C186.4,151.2,193,140.4,193,124.3z"/>
		<path fill="#010101" d="M223.6,139.7h26.8c1,8.9,7,13.2,16.3,13.2c8.5,0,13.9-3.1,13.9-8.9c0-8-10.8-8.9-22.6-10.9
			c-15.5-2.6-32-6.8-32-27.6c0-18.8,17.4-28.5,38.4-28.5c25.2,0,38.8,10.9,40.1,28.5h-26.1c-1-8-6.4-10.4-14.2-10.4
			c-7,0-12.3,2.6-12.3,8.2c0,6.3,10.1,7.1,21.4,9.2c15.6,2.6,34.1,6.6,34.1,29.4c0,19.5-17.2,29.5-40.5,29.5
			C240.8,171.4,224.4,159.4,223.6,139.7z"/>
	</g>
</g>
</svg>
