<?xml version="1.0" encoding="utf-8"?>
<!-- Generator: Adobe Illustrator 18.0.0, SVG Export Plug-In . SVG Version: 6.00 Build 0)  -->
<!DOCTYPE svg PUBLIC "-//W3C//DTD SVG 1.1//EN" "http://www.w3.org/Graphics/SVG/1.1/DTD/svg11.dtd">
<svg version="1.1" id="Layer_1" xmlns="http://www.w3.org/2000/svg" xmlns:xlink="http://www.w3.org/1999/xlink" x="0px" y="0px"
	 viewBox="0 0 293 191" enable-background="new 0 0 293 191" xml:space="preserve">
<g>
	<g>
		<path fill="#231F20" d="M135.7,113.7l1.6-9.2h12.9l-1.6,9.2C148.5,113.7,135.7,113.7,135.7,113.7z M38.9,150.2l-5.5-32.4h12.9
			l2.1,20.5l9.2-20.5h12.3l-16.7,32.4L38.9,150.2L38.9,150.2z M216.9,150.2l5.7-32.4h11.8l-0.9,5.1c3.6-3.9,7.1-6,12-6
			c8.5,0,11.7,5,10.1,13.9l-3.4,19.4h-12.9l3-17.1c0.6-3.2,0.2-6.1-3.5-6.1c-4,0-5.5,2.6-6.2,6.7l-2.9,16.5L216.9,150.2L216.9,150.2
			z M102.6,150.2l5.7-32.4H120l-1.1,6.5h0.1c2.7-5.1,6.3-7.5,11.3-7.5c0.6,0,1.1,0.1,1.6,0.2l-2.3,12.9c-0.9-0.1-1.7-0.4-2.6-0.4
			c-5.2,0-8.4,2.4-9.6,9.4l-2,11.2h-12.8C102.6,150.1,102.6,150.2,102.6,150.2z M200.7,125.5c-4.4,0-6.5,4.5-7.1,8.2
			c-1.1,6.1,0.7,8.8,4,8.8c3.5,0,6-2.7,7.1-8.8C205.5,128.9,204.1,125.4,200.7,125.5z M180,134.4c2-11.3,10.5-17.5,21.4-17.5
			c11.4,0,17.3,6.8,15.5,16.8c-2.1,11.9-11.1,17.5-21.5,17.5C185.1,151.2,178.1,145.4,180,134.4z M78.9,130.4h11.7
			c0.5-3-1.6-5.6-4.7-5.6C82.1,124.7,79.6,126.9,78.9,130.4z M102.3,136.9H77.8c-0.7,3.8,1.8,6.4,5.2,6.4c2,0,4-0.9,5.3-2.8h12.3
			c-3.6,8-12.3,10.7-19.8,10.7c-10.4,0.1-17.4-5.9-15.5-16.8c1.9-10.6,11-17.5,21.4-17.5C98.8,116.9,104.6,125.2,102.3,136.9z
			 M142.1,150.2h-12.9l5.7-32.4h12.9L142.1,150.2z"/>
		<polygon fill="#231F20" points="55.5,99.9 273.4,20.6 274.2,22.6 51.7,108.4 20,21.2 21.7,20.6 		"/>
		<polygon fill="#231F20" points="143.7,162.6 145.2,154.3 165.7,127.2 149.6,127.2 151.3,117.8 182,117.8 180.6,126.1 159.9,153.2 
			166.7,153.2 250.5,159 249.9,162.6 175.8,162.6 		"/>
	</g>
</g>
</svg>
