<?xml version="1.0" encoding="utf-8"?>
<!-- Generator: Adobe Illustrator 18.0.0, SVG Export Plug-In . SVG Version: 6.00 Build 0)  -->
<!DOCTYPE svg PUBLIC "-//W3C//DTD SVG 1.1//EN" "http://www.w3.org/Graphics/SVG/1.1/DTD/svg11.dtd">
<svg version="1.1" id="Layer_2" xmlns="http://www.w3.org/2000/svg" xmlns:xlink="http://www.w3.org/1999/xlink" x="0px" y="0px"
	 viewBox="0 0 612 792" enable-background="new 0 0 612 792" xml:space="preserve">
<path d="M63.9,507.2h-0.3v6.8h-8.2v-66.5h8.3v17c0,3.7-0.2,7.1-0.3,9.1h0.3c3.1-5.1,8.5-8.8,15.5-8.8c12.2,0,20.5,9.5,20.5,25.3
	c0,15.5-7.8,25.3-20.8,25.3C72.5,515.4,67,512.5,63.9,507.2z M91.2,490.2c0-10.6-4.3-18.4-13.1-18.4c-10.2,0-14.8,8.2-14.8,18.4
	c0,10.5,4.9,18.3,14.8,18.3C86.9,508.5,91.2,500.7,91.2,490.2z M106.7,529.7v-7.2h0.4c0.9,0.5,3,0.9,5,0.9c3.3,0,5.5-1.3,7.2-5.8
	c0-0.2,1.9-5.5,1.7-6.1l-18.3-45.6h9l9.9,26.7c2,5.5,4,13,4,13h0.2c0,0,2.2-7.6,4.1-13l9.6-26.7h8.7l-20.4,52.4
	c-3.9,10.1-7.8,12.3-14,12.3C111.1,530.7,108.1,530.3,106.7,529.7z M171.1,465.9h8.9l8.4,25.9c2.1,6.4,4.4,15.3,4.4,15.3h0.2
	c0,0,2.1-8.9,4.2-15.3l8.6-25.9h8.6l-17.3,48h-9.2L171.1,465.9z M217.3,490c0-14,9.2-25.2,23-25.2c7.2,0,12.7,2.8,16.5,7.4
	c3.9,4.7,5.9,11.6,5.9,19.8h-36.9c0.6,9.4,5.7,16.5,15,16.5c6.6,0,11.2-3.1,12.7-8.2h8.1c-2.1,8.9-9.8,15-20.9,15
	C225.9,515.3,217.3,504,217.3,490z M225.9,486h27.8c-0.4-9.2-5.2-14.8-13.5-14.8C231.6,471.2,227,477.5,225.9,486z M280,474.6h0.3
	c3-5.5,7.9-9.3,14.2-9.3c1.3,0,2.1,0.2,3,0.5v7.9h-0.3c-1.2-0.4-2-0.4-3.4-0.4c-7.4,0-13.8,5.5-13.8,14.6V514h-8.3v-48h8.2V474.6z
	 M305.7,447.4h8.7v9.7h-8.7V447.4z M305.9,465.9h8.3v48h-8.3V465.9z M324.2,507.5l21.5-28c2-2.5,5.7-6.5,5.7-6.5v-0.3
	c0,0-5.7,0.3-9,0.3h-16.5v-7.1h36v5.2L340,499.7c-2.1,2.6-6.1,7-6.1,7v0.3c0,0,6.1-0.3,9.6-0.3h19.4v7.3h-38.7V507.5z M367.6,490
	c0-14,9-25.2,23.5-25.2c14.5,0,23.3,11.3,23.3,25.2c0,14-8.9,25.3-23.3,25.3C376.7,515.3,367.6,504,367.6,490z M406,490
	c0-10.4-5.1-18.6-14.9-18.6c-9.8,0-14.9,8.2-14.9,18.6c0,10.4,5.1,18.5,14.9,18.5C400.9,508.5,406,500.4,406,490z M431.9,472.7h0.3
	c3.5-4.8,8.2-8,15.2-8c10,0,16.2,5.6,16.2,15.7V514h-8.2v-32.6c0-6.2-4-9.7-10.6-9.7c-7.4,0-12.8,5.3-12.8,13V514h-8.3v-48h8.2
	V472.7z"/>
<g>
	<path d="M415.7,414.3c36.6,0,63.6-16.3,63.6-46.8c0-35.8-28.7-42.2-53.7-46.6c-17.9-3-34.2-4.4-34.2-14.6c0-8.8,8.5-13.2,19.8-13.2
		c12.9,0,21.5,4.1,23.1,17.1h40.5c-2.2-28.1-23.7-45.5-63.4-45.5c-33.1,0-60.3,15.4-60.3,45.2c0,32.8,25.3,39.7,50.4,44.1
		c19,3.3,36.1,4.4,36.1,17.1c0,9.1-8.5,14.3-22.6,14.3c-14.9,0-24.5-6.9-26.2-21.2h-41.9C348.7,395.2,374.4,414.3,415.7,414.3z
		 M138.8,256.7h43.3v-38.3h-43.3V256.7z M267.5,382.6c-20.4,0-31.1-17.1-31.1-43c0-26.2,10.7-43,31.1-43c20.4,0,31.7,16.8,31.7,43
		C299.1,365.5,287.9,382.6,267.5,382.6z M267.7,414.3c44.9,0,74.9-32.5,74.9-74.7c0-42.4-30-74.7-74.9-74.7
		c-44.9,0-74.9,32.2-74.9,74.7C192.8,381.7,222.8,414.3,267.7,414.3z M138.8,409.8h43.3V268.8h-43.3V409.8z M55.3,409.8h43V299.7
		h28.4v-30.9H98.3v-4.1c0-12.4,10.5-14.1,28.4-13.2v-32.8c-23.7-2.5-48.2,0-60.1,12.1c-7.2,7.2-11.3,17.9-11.3,30.3v7.7H38.5v30.9
		h16.8V409.8z"/>
	<polygon fill="#CD040B" points="566.9,198 513.7,312.1 493.6,268.8 471.9,268.8 504.9,339.6 522.5,339.6 588.5,198 	"/>
</g>
</svg>
