<?xml version="1.0" encoding="utf-8"?>
<!-- Generator: Adobe Illustrator 18.0.0, SVG Export Plug-In . SVG Version: 6.00 Build 0)  -->
<!DOCTYPE svg PUBLIC "-//W3C//DTD SVG 1.1//EN" "http://www.w3.org/Graphics/SVG/1.1/DTD/svg11.dtd">
<svg version="1.1" id="Layer_1" xmlns="http://www.w3.org/2000/svg" xmlns:xlink="http://www.w3.org/1999/xlink" x="0px" y="0px"
	 viewBox="0 0 18.7 18.9" enable-background="new 0 0 18.7 18.9" xml:space="preserve">
<path fill="#F9B295" d="M14.3,14.8c0-0.1,0-0.1-0.1-0.2c0,0,0,0,0,0c0,0-0.1-0.1-0.1-0.1c0,0,0,0,0,0c0,0-0.1-0.1-0.1-0.1
	c0,0-0.1-0.1-0.1-0.1c0,0,0,0,0,0c-0.1,0-0.1-0.1-0.2-0.1c0,0,0,0,0,0c-0.1,0-0.1-0.1-0.2-0.1c0,0,0,0,0,0c-0.1,0-0.1,0-0.2,0
	c0,0,0,0-0.1,0c-0.1,0-0.1,0-0.2,0l-0.5,0l-11,0l-0.3,0c-0.1,0-0.1,0-0.2,0c0,0,0,0,0,0c0,0-0.1,0-0.1,0c0,0,0,0,0,0
	c-0.2,0-0.4,0.1-0.5,0.2c0,0,0,0,0,0c0,0-0.1,0.1-0.1,0.1c0,0,0,0,0,0c-0.1,0.1-0.1,0.2-0.2,0.3c0,0,0,0,0,0c0,0,0,0.1,0,0.1
	c0,0,0,0,0,0c0,0.1,0,0.1,0,0.2c0,0.1,0,0.1,0,0.2c0,0,0,0,0,0c0,0,0,0.1,0,0.1c0,0,0,0,0,0c0,0.1,0.1,0.2,0.2,0.3c0,0,0,0,0,0
	c0,0,0.1,0.1,0.1,0.1c0,0,0,0,0,0c0.1,0.1,0.3,0.2,0.5,0.2c0.1,0,0.2,0,0.3,0l11.8,0c0.1,0,0.2,0,0.2,0c0.1,0,0.1,0,0.2,0
	c0,0,0,0,0,0c0.1,0,0.1,0,0.2-0.1c0,0,0,0,0,0c0.1,0,0.1-0.1,0.2-0.1c0,0,0,0,0,0c0.1,0,0.1-0.1,0.1-0.1c0,0,0.1-0.1,0.1-0.1
	c0,0,0,0,0,0c0,0,0.1-0.1,0.1-0.1c0,0,0,0,0,0c0,0,0-0.1,0.1-0.2l0,0c0-0.1,0-0.1,0-0.2C14.3,14.9,14.3,14.9,14.3,14.8L14.3,14.8"/>
<path fill="#F9B295" d="M12.8,13.4c0.1-0.3,0.1-0.6,0.1-0.8c0-2.5-2.6-4.5-5.8-4.5c-3.2,0-5.8,2-5.8,4.5c0,0.3,0,0.6,0.1,0.8
	L12.8,13.4z"/>
<path fill="#F9B295" d="M13.1,16.6l-11.8,0c-0.1,0-0.2,0-0.3,0c0.2,1.3,1.2,2.3,2.3,2.3l7.6,0c1.2,0,2.1-1,2.3-2.3
	C13.2,16.6,13.1,16.6,13.1,16.6"/>
<path fill="#F9B295" d="M13.6,12.5c0,0.3,0,0.6-0.1,0.8c0.9,0.1,1.6,0.8,1.6,1.6c0,0.9-0.8,1.6-1.9,1.6l-0.6,0
	c0.2,0.2,0.5,0.4,0.8,0.4l3,0c0.5,0,1-0.4,1.1-1l1-10.4c0.1-0.5-0.3-1-0.9-1l-5.6,0c-0.5,0-1,0.4-0.9,1L11.7,9
	C12.9,9.9,13.6,11.1,13.6,12.5"/>
<path fill="#F9B295" d="M17.8,4l0.4-3.4C18.2,0.3,18,0,17.7,0c-0.3,0-0.6,0.2-0.7,0.5L16.6,4L17.8,4z"/>
</svg>
