<?xml version="1.0" encoding="utf-8"?>
<!-- Generator: Adobe Illustrator 18.0.0, SVG Export Plug-In . SVG Version: 6.00 Build 0)  -->
<!DOCTYPE svg PUBLIC "-//W3C//DTD SVG 1.1 Tiny//EN" "http://www.w3.org/Graphics/SVG/1.1/DTD/svg11-tiny.dtd">
<svg version="1.1" baseProfile="tiny" id="Layer_1" xmlns="http://www.w3.org/2000/svg" xmlns:xlink="http://www.w3.org/1999/xlink"
	 x="0px" y="0px" viewBox="0 0 11.2 12.4" xml:space="preserve">
<g id="XMLID_1_">
	<g>
		<path fill="#83CCAB" d="M11,8.8c0,0.8-0.9,1.6-1.9,1.8c-0.2,0-0.4,0.1-0.6,0.1c-0.9,0-1.4-0.4-1.4-1.2c0-0.9,0.7-1.6,1.9-1.8
			c0.2,0,0.3,0,0.5,0c0.2,0,0.5,0,0.7,0.1v-5l-6,1.6v5.2v1c0,0.8-0.9,1.6-1.9,1.8c-0.2,0-0.4,0.1-0.6,0.1c-0.9,0-1.4-0.4-1.4-1.2
			c0-0.9,0.7-1.6,1.9-1.8c0.2,0,0.3-0.1,0.5-0.1c0.2,0,0.5,0,0.7,0.1v-7c0-0.1,0-0.1,0.1-0.2l7.4-2c0,0,0,0,0,0c0,0,0.1,0,0.1,0
			c0,0,0.1,0.1,0.1,0.1V8.8z"/>
	</g>
	<g>
	</g>
</g>
</svg>
