<?xml version="1.0" encoding="utf-8"?>
<!-- Generator: Adobe Illustrator 18.0.0, SVG Export Plug-In . SVG Version: 6.00 Build 0)  -->
<!DOCTYPE svg PUBLIC "-//W3C//DTD SVG 1.1//EN" "http://www.w3.org/Graphics/SVG/1.1/DTD/svg11.dtd">
<svg version="1.1" id="Layer_1" xmlns="http://www.w3.org/2000/svg" xmlns:xlink="http://www.w3.org/1999/xlink" x="0px" y="0px"
	 viewBox="0 0 10.6 19.4" enable-background="new 0 0 10.6 19.4" xml:space="preserve">
<path fill="#ACE0F9" d="M5.3,1.5C4.4,1.5,3.7,0.9,3.7,0L1.4,0C0.6,0,0,0.7,0,1.5l0,9.8c0,0,0,0,0,0c0.5,0,0.8,0.4,0.8,0.8
	C0.9,12.6,0.5,13,0,13c0,0,0,0,0,0l0,5c0,0.8,0.7,1.4,1.5,1.4l2.3,0c0-0.9,0.7-1.5,1.5-1.5c0.9,0,1.6,0.7,1.6,1.5l2.3,0
	c0.8,0,1.4-0.6,1.4-1.4l0-5c0,0,0,0,0,0c-0.5,0-0.8-0.4-0.8-0.8c0-0.5,0.4-0.8,0.8-0.8c0,0,0,0,0,0l0-9.8C10.6,0.6,9.9,0,9.1,0
	L6.8,0C6.8,0.9,6.1,1.5,5.3,1.5 M8.8,12.1c0,0.5-0.4,0.8-0.8,0.8c-0.5,0-0.8-0.4-0.8-0.8c0-0.5,0.4-0.8,0.8-0.8
	C8.4,11.3,8.8,11.6,8.8,12.1 M6.2,12.1c0,0.5-0.4,0.8-0.8,0.8c-0.5,0-0.8-0.4-0.8-0.8c0-0.5,0.4-0.8,0.8-0.8
	C5.8,11.3,6.2,11.6,6.2,12.1 M3.5,12.1c0,0.5-0.4,0.8-0.8,0.8c-0.5,0-0.8-0.4-0.8-0.8c0-0.5,0.4-0.8,0.8-0.8
	C3.1,11.3,3.5,11.6,3.5,12.1"/>
</svg>
